<svg id="Layer_1" data-name="Layer 1" xmlns="http://www.w3.org/2000/svg" viewBox="0 0 371.7 78.49"><defs><style>.cls-1{fill:#1a1a1a;}.cls-2{fill:#0070ba;}</style></defs><title>FlooentLegal - Text</title><path class="cls-1" d="M4.43,8.28l27,.26,0,3.82L8.6,12.14l-.16,16,21.19.2,0,3.82L8.41,32,8.2,53.38l-4.2,0Z"/><path class="cls-1" d="M39.38,8.2l3.81,0-.43,45.48-3.82,0Z"/><path class="cls-1" d="M52.06,39.1a16.66,16.66,0,0,1,1.21-6.2A14.86,14.86,0,0,1,56.5,28a14.11,14.11,0,0,1,4.93-3.16,16.6,16.6,0,0,1,6.25-1.09A16.18,16.18,0,0,1,73.87,25a14.41,14.41,0,0,1,8,8.19A16.32,16.32,0,0,1,83,39.39a16.62,16.62,0,0,1-1.21,6.2,14.41,14.41,0,0,1-8.19,8,17.54,17.54,0,0,1-12.44-.12,14,14,0,0,1-4.87-3.26,14.79,14.79,0,0,1-3.14-4.94A16.48,16.48,0,0,1,52.06,39.1Zm3.82,0a13.92,13.92,0,0,0,.75,4.68,10.94,10.94,0,0,0,2.29,3.84,11.23,11.23,0,0,0,3.67,2.61,11.87,11.87,0,0,0,4.83,1,12,12,0,0,0,4.84-.91A11.25,11.25,0,0,0,76,47.82,10.94,10.94,0,0,0,78.34,44a14.17,14.17,0,0,0,.09-9.36,10.94,10.94,0,0,0-2.29-3.84,11.23,11.23,0,0,0-3.67-2.61,11.86,11.86,0,0,0-4.82-1,11.69,11.69,0,0,0-4.85.91,11.23,11.23,0,0,0-3.72,2.54,11,11,0,0,0-2.36,3.79A13.87,13.87,0,0,0,55.88,39.14Z"/><path class="cls-1" d="M89.87,39.46a16.37,16.37,0,0,1,1.2-6.19A14.91,14.91,0,0,1,94.3,28.4a14.08,14.08,0,0,1,4.93-3.17,17.42,17.42,0,0,1,12.45.12,14.36,14.36,0,0,1,8,8.19A17.32,17.32,0,0,1,119.59,46a14.41,14.41,0,0,1-8.19,8,16.48,16.48,0,0,1-6.21,1.08A16.66,16.66,0,0,1,99,53.87a14.14,14.14,0,0,1-4.87-3.26A14.82,14.82,0,0,1,91,45.68,16.38,16.38,0,0,1,89.87,39.46Zm3.82,0a13.43,13.43,0,0,0,.75,4.68A10.92,10.92,0,0,0,96.72,48a11.11,11.11,0,0,0,3.67,2.62,12.72,12.72,0,0,0,9.67.09,11.23,11.23,0,0,0,3.72-2.54,10.93,10.93,0,0,0,2.36-3.8,13.86,13.86,0,0,0,.84-4.67,13.69,13.69,0,0,0-.75-4.69,10.94,10.94,0,0,0-2.29-3.84,11.3,11.3,0,0,0-3.66-2.61,12.74,12.74,0,0,0-9.68-.09A11.08,11.08,0,0,0,96.89,31a10.84,10.84,0,0,0-2.36,3.8A13.3,13.3,0,0,0,93.69,39.5Z"/><path class="cls-1" d="M155.21,49.25A12.9,12.9,0,0,1,149.66,54a17.55,17.55,0,0,1-7.24,1.4,15.68,15.68,0,0,1-6.1-1.2A13.88,13.88,0,0,1,131.64,51a14.31,14.31,0,0,1-3-4.93,18,18,0,0,1-1-6.28,16.76,16.76,0,0,1,1.14-6.1,14.53,14.53,0,0,1,3.11-4.84,14.19,14.19,0,0,1,4.67-3.2,14.52,14.52,0,0,1,5.93-1.12,14.18,14.18,0,0,1,5.94,1.23,13,13,0,0,1,4.3,3.16,13.37,13.37,0,0,1,2.6,4.45,14.65,14.65,0,0,1,.84,5l0,2.67-24.7-.24a12.71,12.71,0,0,0,.45,3.09A11.1,11.1,0,0,0,137,50.67a10.65,10.65,0,0,0,5.5,1.32,12.33,12.33,0,0,0,5.67-1.34,10.22,10.22,0,0,0,4.24-3.78Zm-2.82-11.67a8.7,8.7,0,0,0-.76-3.7,9.86,9.86,0,0,0-2.13-3.05,10.24,10.24,0,0,0-3.23-2.1,10.42,10.42,0,0,0-4-.8,9.8,9.8,0,0,0-5.2,1.22,11.54,11.54,0,0,0-3.31,2.9,11.86,11.86,0,0,0-1.75,3.2,8.06,8.06,0,0,0-.52,2.13Z"/><path class="cls-1" d="M164.77,33.75c0-.55,0-1.22,0-2s-.06-1.58-.07-2.39,0-1.56-.08-2.26-.05-1.24,0-1.62l3.81,0c0,1.1.06,2.16.07,3.18a9.91,9.91,0,0,0,.14,2h.19a10.32,10.32,0,0,1,3.86-4.14,11.14,11.14,0,0,1,6.25-1.69A12.57,12.57,0,0,1,184.45,26a8.93,8.93,0,0,1,3.38,2.86,10.59,10.59,0,0,1,1.68,4.06,22.94,22.94,0,0,1,.43,4.71l-.16,17.51-3.82,0,.16-17.31a18.83,18.83,0,0,0-.28-3.47,9.24,9.24,0,0,0-1.09-3,5.83,5.83,0,0,0-2.2-2.15,7.59,7.59,0,0,0-3.72-.83,11,11,0,0,0-4,.69,8.56,8.56,0,0,0-3.27,2.2,10.75,10.75,0,0,0-2.2,3.73,15.93,15.93,0,0,0-.85,5.31l-.14,14.7-3.82,0Z"/><path class="cls-1" d="M214.59,29.39l-8.4-.08L206,48.46a4.09,4.09,0,0,0,1.05,3.07,4,4,0,0,0,3,1.11,8.89,8.89,0,0,0,2.2-.27,13.77,13.77,0,0,0,2.14-.71l.28,3.44a22.94,22.94,0,0,1-2.49.68,11.26,11.26,0,0,1-2.48.29,9,9,0,0,1-3.5-.64,6.15,6.15,0,0,1-2.33-1.64,6.48,6.48,0,0,1-1.29-2.4,10.46,10.46,0,0,1-.38-3l.18-19.15L196,29.21l0-3.44,6.36.06.08-8.46,3.82,0-.08,8.47,8.4.08Z"/><path class="cls-2" d="M227.28,10.92h5.86V51.16h19.31v4.92H227.28Z"/><path class="cls-2" d="M261.09,40.94c.11,8,5.17,11.25,11.09,11.25a21.69,21.69,0,0,0,9-1.66l1,4.19a26.16,26.16,0,0,1-10.81,2.06c-9.95,0-15.94-6.63-15.94-16.35s5.78-17.49,15.25-17.49c10.57,0,13.33,9.27,13.33,15.24a14.41,14.41,0,0,1-.2,2.76Zm17.25-4.24c.05-3.71-1.53-9.54-8.13-9.54-6,0-8.58,5.44-9,9.54Z"/><path class="cls-2" d="M319.33,23.68c-.16,2.29-.28,4.92-.28,8.86V51.36c0,7.5-1.53,12-4.62,14.84s-7.72,3.88-11.81,3.88c-3.92,0-8.18-.91-10.81-2.66l1.47-4.54a18.26,18.26,0,0,0,9.54,2.6c6,0,10.44-3.15,10.44-11.36V50.51h-.14c-1.77,3-5.3,5.46-10.29,5.46C294.75,56,289,49.1,289,40.12c0-11,7.15-17.18,14.63-17.18,5.62,0,8.67,2.89,10.11,5.59h.13l.25-4.85ZM313.2,36.42a9.07,9.07,0,0,0-.33-2.63,8.51,8.51,0,0,0-8.28-6.27c-5.62,0-9.65,4.75-9.65,12.28,0,6.34,3.28,11.67,9.59,11.67a8.63,8.63,0,0,0,8.2-6.07,10.3,10.3,0,0,0,.47-3.14Z"/><path class="cls-2" d="M346.81,56.08,346.29,52h-.18a12,12,0,0,1-9.91,4.83c-6.55,0-9.9-4.65-9.9-9.3,0-7.85,7-12.16,19.47-12.07v-.69c0-2.63-.74-7.51-7.38-7.47A15.75,15.75,0,0,0,330,29.7l-1.33-3.92a20.36,20.36,0,0,1,10.69-2.84c9.91,0,12.32,6.77,12.32,13.26V48.33a51.13,51.13,0,0,0,.49,7.75Zm-.92-16.55c-6.38-.13-13.68,1-13.68,7.28,0,3.87,2.55,5.64,5.5,5.64a8.11,8.11,0,0,0,7.9-5.42,6.32,6.32,0,0,0,.28-1.86Z"/><path class="cls-2" d="M361.16,8.51H367V56.08h-5.86Z"/></svg>