<svg id="Layer_1" data-name="Layer 1" xmlns="http://www.w3.org/2000/svg" viewBox="0 0 328.23 78.49"><defs><style>.cls-1{fill:#1a1a1a;}.cls-2{fill:#803790;}</style></defs><title>FlooentEdu_1</title><path class="cls-1" d="M4,15.75H31v3.82H8.2v16H29.4v3.82H8.2V60.81H4Z"/><path class="cls-1" d="M38.94,15.33h3.82V60.81H38.94Z"/><path class="cls-1" d="M51.93,46.11a16.5,16.5,0,0,1,1.14-6.21A15.13,15.13,0,0,1,56.25,35a14.19,14.19,0,0,1,4.9-3.21,16.57,16.57,0,0,1,6.24-1.15,16.31,16.31,0,0,1,6.21,1.15,14.36,14.36,0,0,1,8.11,8.11,17.32,17.32,0,0,1,0,12.41,14.41,14.41,0,0,1-8.11,8.12,16.5,16.5,0,0,1-6.21,1.15,16.77,16.77,0,0,1-6.24-1.15,14.08,14.08,0,0,1-4.9-3.22,14.92,14.92,0,0,1-3.18-4.9A16.41,16.41,0,0,1,51.93,46.11Zm3.82,0a13.69,13.69,0,0,0,.79,4.68,10.82,10.82,0,0,0,6,6.39,12.66,12.66,0,0,0,9.67,0,11.17,11.17,0,0,0,3.69-2.57,11,11,0,0,0,2.32-3.82,14.09,14.09,0,0,0,0-9.36,10.92,10.92,0,0,0-2.32-3.82A11.17,11.17,0,0,0,72.23,35a12.66,12.66,0,0,0-9.67,0,10.82,10.82,0,0,0-6,6.39A13.61,13.61,0,0,0,55.75,46.11Z"/><path class="cls-1" d="M89.73,46.11a16.31,16.31,0,0,1,1.15-6.21A14.81,14.81,0,0,1,94.06,35,14.1,14.1,0,0,1,99,31.79a16.53,16.53,0,0,1,6.24-1.15,16.25,16.25,0,0,1,6.2,1.15A14.38,14.38,0,0,1,116.3,35a14.76,14.76,0,0,1,3.22,4.9,17.46,17.46,0,0,1,0,12.41,14.55,14.55,0,0,1-3.22,4.9,14.26,14.26,0,0,1-4.9,3.22,16.45,16.45,0,0,1-6.2,1.15A16.73,16.73,0,0,1,99,60.43a14,14,0,0,1-4.9-3.22,14.61,14.61,0,0,1-3.18-4.9A16.22,16.22,0,0,1,89.73,46.11Zm3.82,0a13.7,13.7,0,0,0,.8,4.68,11,11,0,0,0,2.32,3.82,11.17,11.17,0,0,0,3.69,2.57,12.66,12.66,0,0,0,9.67,0,10.82,10.82,0,0,0,6-6.39,14.09,14.09,0,0,0,0-9.36,10.92,10.92,0,0,0-2.32-3.82A11.11,11.11,0,0,0,110,35a12.66,12.66,0,0,0-9.67,0,11.17,11.17,0,0,0-3.69,2.57,10.92,10.92,0,0,0-2.32,3.82A13.61,13.61,0,0,0,93.55,46.11Z"/><path class="cls-1" d="M155.16,55.27a12.82,12.82,0,0,1-5.5,4.84,17.5,17.5,0,0,1-7.23,1.47,15.76,15.76,0,0,1-6.11-1.15,13.67,13.67,0,0,1-4.71-3.22,14.09,14.09,0,0,1-3-4.9,17.85,17.85,0,0,1-1-6.27,16.78,16.78,0,0,1,1.08-6.1,14.29,14.29,0,0,1,13.62-9.3,14.26,14.26,0,0,1,5.95,1.18,12.94,12.94,0,0,1,7,7.54,14.9,14.9,0,0,1,.89,5v2.67H131.36a13.42,13.42,0,0,0,.47,3.09,11.16,11.16,0,0,0,1.75,3.66,11,11,0,0,0,3.41,3,10.53,10.53,0,0,0,5.51,1.28,12.34,12.34,0,0,0,5.66-1.4,10.32,10.32,0,0,0,4.2-3.82Zm-2.93-11.64a8.64,8.64,0,0,0-.79-3.69,9.73,9.73,0,0,0-2.17-3A10.22,10.22,0,0,0,146,34.84a10.64,10.64,0,0,0-4-.76,9.83,9.83,0,0,0-5.19,1.27,11.47,11.47,0,0,0-3.28,2.93,11.85,11.85,0,0,0-1.71,3.21,8.47,8.47,0,0,0-.51,2.14Z"/><path class="cls-1" d="M164.58,39.68c0-.55,0-1.22-.06-2s-.08-1.58-.1-2.39,0-1.56-.09-2.26-.07-1.24-.07-1.62h3.82c0,1.1.07,2.16.1,3.18a9.37,9.37,0,0,0,.16,2h.19a10.3,10.3,0,0,1,3.81-4.17,11.22,11.22,0,0,1,6.24-1.75,12.55,12.55,0,0,1,5.6,1.08,9.14,9.14,0,0,1,3.41,2.84,10.64,10.64,0,0,1,1.72,4,22.94,22.94,0,0,1,.47,4.71v17.5H186V43.5a18.9,18.9,0,0,0-.32-3.47,9.17,9.17,0,0,0-1.12-3,5.93,5.93,0,0,0-2.22-2.14,7.67,7.67,0,0,0-3.73-.79,11,11,0,0,0-4,.73A8.49,8.49,0,0,0,171.36,37a10.89,10.89,0,0,0-2.17,3.75,16.07,16.07,0,0,0-.79,5.32v14.7h-3.82Z"/><path class="cls-1" d="M214.35,34.84H206V54A4.15,4.15,0,0,0,207,57.06a4,4,0,0,0,3,1.08,8.81,8.81,0,0,0,2.2-.29,13.7,13.7,0,0,0,2.13-.73l.32,3.44a25.7,25.7,0,0,1-2.48.7,11.54,11.54,0,0,1-2.48.32A9.26,9.26,0,0,1,206.2,61a6.16,6.16,0,0,1-2.35-1.62,6.38,6.38,0,0,1-1.3-2.39,10,10,0,0,1-.42-3V34.84h-6.36V31.41h6.36V22.94H206v8.47h8.4Z"/><path class="cls-2" d="M248.44,41.37H230.93V57.68h19.58v4.86H225.07V17.38h24.41v4.86H230.93v14.3h17.51Z"/><path class="cls-2" d="M285.53,15V54.18c0,2.89.11,6.13.27,8.36h-5.24l-.3-5.6h-.16c-1.8,3.62-5.7,6.34-11,6.34-7.85,0-13.91-6.64-13.91-16.46,0-10.84,6.67-17.42,14.56-17.42,5,0,8.33,2.33,9.78,4.92h.13V15Zm-5.86,28.35a12.79,12.79,0,0,0-.24-2.52A8.73,8.73,0,0,0,270.89,34c-6.1,0-9.75,5.36-9.75,12.48,0,6.58,3.28,12,9.63,12a8.88,8.88,0,0,0,8.61-7.07,9.66,9.66,0,0,0,.29-2.53Z"/><path class="cls-2" d="M322.42,53.67c0,3.4.11,6.31.27,8.87h-5.21l-.31-5.3H317a12.08,12.08,0,0,1-10.72,6c-5.07,0-11.16-2.84-11.16-14.2V30.14H301V48c0,6.17,1.93,10.38,7.24,10.38A8.59,8.59,0,0,0,316,53a8.94,8.94,0,0,0,.54-3V30.14h5.86Z"/></svg>