<svg id="Layer_1" data-name="Layer 1" xmlns="http://www.w3.org/2000/svg" viewBox="0 0 323.35 78.49"><defs><style>.cls-1{fill:#1a1a1a;}.cls-2{fill:#ca3433;}</style></defs><title>FlooentMD - Text</title><path class="cls-1" d="M5,15.79H32v3.82H9.2v16H30.4v3.82H9.2V60.85H5Z"/><path class="cls-1" d="M39.94,15.37h3.82V60.85H39.94Z"/><path class="cls-1" d="M52.93,46.15a16.5,16.5,0,0,1,1.14-6.21A15,15,0,0,1,57.25,35a14.19,14.19,0,0,1,4.9-3.21,16.57,16.57,0,0,1,6.24-1.15,16.31,16.31,0,0,1,6.21,1.15,14.36,14.36,0,0,1,8.11,8.11,17.32,17.32,0,0,1,0,12.41,14.41,14.41,0,0,1-8.11,8.12,16.5,16.5,0,0,1-6.21,1.14,16.76,16.76,0,0,1-6.24-1.14,14.22,14.22,0,0,1-4.9-3.22,14.92,14.92,0,0,1-3.18-4.9A16.41,16.41,0,0,1,52.93,46.15Zm3.82,0a13.69,13.69,0,0,0,.79,4.68,10.89,10.89,0,0,0,6,6.39,12.66,12.66,0,0,0,9.67,0,11.05,11.05,0,0,0,3.69-2.58,10.88,10.88,0,0,0,2.32-3.81,14.09,14.09,0,0,0,0-9.36,10.92,10.92,0,0,0-2.32-3.82,11.35,11.35,0,0,0-3.69-2.58,12.78,12.78,0,0,0-9.67,0,11.29,11.29,0,0,0-3.7,2.58,11.07,11.07,0,0,0-2.32,3.82A13.61,13.61,0,0,0,56.75,46.15Z"/><path class="cls-1" d="M90.73,46.15a16.31,16.31,0,0,1,1.15-6.21A14.71,14.71,0,0,1,95.06,35a14.1,14.1,0,0,1,4.9-3.21,16.53,16.53,0,0,1,6.24-1.15,16.25,16.25,0,0,1,6.2,1.15A14.38,14.38,0,0,1,117.3,35a14.65,14.65,0,0,1,3.22,4.9,17.46,17.46,0,0,1,0,12.41,14.55,14.55,0,0,1-3.22,4.9,14.41,14.41,0,0,1-4.9,3.22,16.44,16.44,0,0,1-6.2,1.14A16.73,16.73,0,0,1,100,60.47a14.12,14.12,0,0,1-4.9-3.22,14.61,14.61,0,0,1-3.18-4.9A16.22,16.22,0,0,1,90.73,46.15Zm3.82,0a13.7,13.7,0,0,0,.8,4.68,10.88,10.88,0,0,0,2.32,3.81,11.05,11.05,0,0,0,3.69,2.58,12.66,12.66,0,0,0,9.67,0,11,11,0,0,0,3.7-2.58,10.88,10.88,0,0,0,2.32-3.81,14.09,14.09,0,0,0,0-9.36,10.92,10.92,0,0,0-2.32-3.82,11.29,11.29,0,0,0-3.7-2.58,12.78,12.78,0,0,0-9.67,0,11.35,11.35,0,0,0-3.69,2.58,10.92,10.92,0,0,0-2.32,3.82A13.61,13.61,0,0,0,94.55,46.15Z"/><path class="cls-1" d="M156.16,55.31a12.82,12.82,0,0,1-5.5,4.84,17.5,17.5,0,0,1-7.23,1.46,15.76,15.76,0,0,1-6.11-1.14,13.81,13.81,0,0,1-4.71-3.22,14.09,14.09,0,0,1-3-4.9,17.85,17.85,0,0,1-1.05-6.27A16.88,16.88,0,0,1,129.62,40a14.43,14.43,0,0,1,7.7-8.11,14.62,14.62,0,0,1,5.92-1.18,14.26,14.26,0,0,1,5.95,1.18,12.94,12.94,0,0,1,7,7.54,14.9,14.9,0,0,1,.89,5V47.1H132.36a13.42,13.42,0,0,0,.47,3.09,11.16,11.16,0,0,0,1.75,3.66,11,11,0,0,0,3.41,3,10.62,10.62,0,0,0,5.51,1.28,12.34,12.34,0,0,0,5.66-1.4,10.32,10.32,0,0,0,4.2-3.82Zm-2.93-11.64a8.72,8.72,0,0,0-.79-3.7,9.81,9.81,0,0,0-2.17-3A10.22,10.22,0,0,0,147,34.88a10.44,10.44,0,0,0-4-.76,9.74,9.74,0,0,0-5.19,1.27,11.47,11.47,0,0,0-3.28,2.93,11.71,11.71,0,0,0-1.71,3.21,8.47,8.47,0,0,0-.51,2.14Z"/><path class="cls-1" d="M165.58,39.72q0-.82-.06-2c-.05-.78-.08-1.58-.1-2.38s0-1.56-.09-2.26-.07-1.24-.07-1.62h3.82c0,1.1.07,2.16.1,3.18a9.45,9.45,0,0,0,.16,2h.19a10.3,10.3,0,0,1,3.81-4.17,11.22,11.22,0,0,1,6.24-1.75,12.55,12.55,0,0,1,5.6,1.08,9.14,9.14,0,0,1,3.41,2.84,10.57,10.57,0,0,1,1.72,4,22.94,22.94,0,0,1,.47,4.71v17.5H187V43.54a18.82,18.82,0,0,0-.32-3.47,9.17,9.17,0,0,0-1.12-3,5.93,5.93,0,0,0-2.22-2.14,7.67,7.67,0,0,0-3.73-.79,10.76,10.76,0,0,0-4,.73,8.49,8.49,0,0,0-3.25,2.23,10.89,10.89,0,0,0-2.17,3.75,16.07,16.07,0,0,0-.79,5.32v14.7h-3.82Z"/><path class="cls-1" d="M215.35,34.88H207V54A4.15,4.15,0,0,0,208,57.1a4,4,0,0,0,3,1.08,8.81,8.81,0,0,0,2.2-.29,13.7,13.7,0,0,0,2.13-.73l.32,3.44a25.7,25.7,0,0,1-2.48.7,11.47,11.47,0,0,1-2.48.31,9.27,9.27,0,0,1-3.51-.6,6.16,6.16,0,0,1-2.35-1.62,6.38,6.38,0,0,1-1.3-2.39,10,10,0,0,1-.42-3V34.88h-6.36V31.45h6.36V23H207v8.47h8.4Z"/><path class="cls-2" d="M266.18,42.75c-.35-6.27-.76-13.9-.72-19.48h-.19c-1.55,5.24-3.43,10.94-5.68,17.12l-8,21.91h-4.41l-7.36-21.51c-2.15-6.38-3.9-12.17-5.17-17.52h-.16c-.15,5.63-.45,13.15-.88,19.93l-1.2,19.38H226.9L230,17.42h7.45l7.69,21.86c1.86,5.53,3.38,10.5,4.55,15.21h.17c1.19-4.57,2.77-9.55,4.78-15.21l8.06-21.86h7.46L273,62.58h-5.74Z"/><path class="cls-2" d="M281.92,18a78.52,78.52,0,0,1,12.42-1c8.35,0,14.34,2,18.29,5.67S319,31.63,319,38.9s-2.31,13.4-6.49,17.57S301.28,63,292.53,63a94,94,0,0,1-10.61-.51Zm5.86,40a41.65,41.65,0,0,0,5.87.27c12.5,0,19.23-6.93,19.23-19.14.07-10.66-6-17.4-18.26-17.4a34.44,34.44,0,0,0-6.84.6Z"/></svg>