<svg id="Layer_1" data-name="Layer 1" xmlns="http://www.w3.org/2000/svg" viewBox="0 0 375 80"><defs><style>.cls-1{fill:#1a1a1a;}.cls-2{fill:#0070ba;}</style></defs><title>FlooentLegal - Text</title><path class="cls-1" d="M6.08,16.15l27,.26,0,3.82L10.24,20l-.15,16,21.19.2,0,3.82-21.2-.2-.2,21.38-4.2,0Z"/><path class="cls-1" d="M41,16.06l3.82,0-.43,45.48-3.82,0Z"/><path class="cls-1" d="M53.71,47a16.47,16.47,0,0,1,1.21-6.2,14.86,14.86,0,0,1,3.23-4.87,14.11,14.11,0,0,1,4.93-3.16,16.6,16.6,0,0,1,6.25-1.09,16.18,16.18,0,0,1,6.19,1.21,14.41,14.41,0,0,1,8,8.19,17.46,17.46,0,0,1-.12,12.41,14.41,14.41,0,0,1-8.19,8,17.57,17.57,0,0,1-12.45-.12,14.12,14.12,0,0,1-4.87-3.27,14.88,14.88,0,0,1-3.13-4.93A16.29,16.29,0,0,1,53.71,47Zm3.82,0a13.93,13.93,0,0,0,.75,4.69,10.94,10.94,0,0,0,2.29,3.84,11.23,11.23,0,0,0,3.67,2.61,11.86,11.86,0,0,0,4.82,1,12.05,12.05,0,0,0,4.85-.91,11.25,11.25,0,0,0,3.72-2.55A10.92,10.92,0,0,0,80,51.9a14,14,0,0,0,.09-9.36,10.77,10.77,0,0,0-2.28-3.84,11.23,11.23,0,0,0-3.67-2.61A12.72,12.72,0,0,0,64.45,36a11.23,11.23,0,0,0-3.72,2.54,11,11,0,0,0-2.36,3.79A13.86,13.86,0,0,0,57.53,47Z"/><path class="cls-1" d="M91.52,47.33a16.46,16.46,0,0,1,1.2-6.2A14.86,14.86,0,0,1,96,36.26a14.11,14.11,0,0,1,4.93-3.16A16.6,16.6,0,0,1,107.13,32a16.18,16.18,0,0,1,6.19,1.21,14.41,14.41,0,0,1,8,8.19,16.32,16.32,0,0,1,1.09,6.21,16.62,16.62,0,0,1-1.21,6.2,14.41,14.41,0,0,1-8.19,8,17.54,17.54,0,0,1-12.44-.12,14.14,14.14,0,0,1-4.87-3.26,14.84,14.84,0,0,1-3.14-4.93A16.37,16.37,0,0,1,91.52,47.33Zm3.81,0a13.68,13.68,0,0,0,.76,4.68,10.77,10.77,0,0,0,2.28,3.84A11.23,11.23,0,0,0,102,58.5a11.87,11.87,0,0,0,4.83,1,12,12,0,0,0,4.84-.91,11.25,11.25,0,0,0,3.72-2.55,10.94,10.94,0,0,0,2.36-3.79,14.17,14.17,0,0,0,.09-9.36,10.94,10.94,0,0,0-2.29-3.84,11.23,11.23,0,0,0-3.67-2.61,11.86,11.86,0,0,0-4.82-1,11.69,11.69,0,0,0-4.85.91,10.95,10.95,0,0,0-6.08,6.34A13.77,13.77,0,0,0,95.33,47.37Z"/><path class="cls-1" d="M156.85,57.12a12.79,12.79,0,0,1-5.55,4.78,17.47,17.47,0,0,1-7.23,1.4,15.65,15.65,0,0,1-6.1-1.21,13.6,13.6,0,0,1-4.68-3.26,14.12,14.12,0,0,1-3-4.92,18,18,0,0,1-1-6.28,16.76,16.76,0,0,1,1.14-6.1,14.51,14.51,0,0,1,3.1-4.84,14.18,14.18,0,0,1,4.68-3.2,14.52,14.52,0,0,1,5.93-1.12,14.18,14.18,0,0,1,5.94,1.23,13,13,0,0,1,4.3,3.16,13.37,13.37,0,0,1,2.6,4.45,14.88,14.88,0,0,1,.84,5l0,2.68-24.69-.24a12.71,12.71,0,0,0,.45,3.09,10.93,10.93,0,0,0,1.71,3.68,11.24,11.24,0,0,0,3.38,3.09,10.61,10.61,0,0,0,5.49,1.32,12.34,12.34,0,0,0,5.68-1.34,10.28,10.28,0,0,0,4.24-3.78ZM154,45.44a8.68,8.68,0,0,0-.76-3.69,9.73,9.73,0,0,0-2.14-3,10.2,10.2,0,0,0-3.22-2.1,10.42,10.42,0,0,0-4-.8,9.77,9.77,0,0,0-5.2,1.22,11.39,11.39,0,0,0-3.31,2.9,11.86,11.86,0,0,0-1.75,3.2,8.66,8.66,0,0,0-.53,2.13Z"/><path class="cls-1" d="M166.42,41.62c0-.56,0-1.22,0-2s-.06-1.58-.07-2.39,0-1.56-.08-2.26,0-1.24,0-1.62l3.82,0c0,1.1.06,2.16.07,3.18a9.17,9.17,0,0,0,.14,2h.19a10.25,10.25,0,0,1,3.86-4.14,11.12,11.12,0,0,1,6.25-1.69,12.43,12.43,0,0,1,5.59,1.14,9,9,0,0,1,3.38,2.86,10.59,10.59,0,0,1,1.68,4.06,22.94,22.94,0,0,1,.43,4.71L191.42,63l-3.82,0,.17-17.31a18.83,18.83,0,0,0-.28-3.47,9.47,9.47,0,0,0-1.09-3A5.86,5.86,0,0,0,184.19,37a7.57,7.57,0,0,0-3.71-.83,11.09,11.09,0,0,0-4,.69,8.6,8.6,0,0,0-3.26,2.2,10.6,10.6,0,0,0-2.2,3.73,15.89,15.89,0,0,0-.85,5.31L170,62.78l-3.82,0Z"/><path class="cls-1" d="M216.24,37.25l-8.4-.08-.18,19.16a4.09,4.09,0,0,0,1.05,3.07,4,4,0,0,0,3,1.11,9.39,9.39,0,0,0,2.2-.27,14.13,14.13,0,0,0,2.14-.71l.28,3.44a22.94,22.94,0,0,1-2.49.68,11.26,11.26,0,0,1-2.48.29,9,9,0,0,1-3.5-.64,6.27,6.27,0,0,1-2.34-1.64,6.61,6.61,0,0,1-1.28-2.4,10.12,10.12,0,0,1-.38-3L204,37.14l-6.37-.06,0-3.44,6.36.06.08-8.46,3.82,0-.08,8.47,8.4.08Z"/><path class="cls-2" d="M228.92,18.79h5.87V59h19.3V64H228.92Z"/><path class="cls-2" d="M262.74,48.81c.11,8,5.17,11.25,11.08,11.25a21.88,21.88,0,0,0,9-1.66l1,4.19A26.16,26.16,0,0,1,273,64.65c-10,0-15.94-6.63-15.94-16.35s5.78-17.49,15.24-17.49c10.58,0,13.34,9.27,13.34,15.24a14.41,14.41,0,0,1-.2,2.76ZM280,44.57c.06-3.71-1.52-9.54-8.13-9.54-6,0-8.57,5.44-9,9.54Z"/><path class="cls-2" d="M321,31.55c-.17,2.29-.28,4.92-.28,8.86V59.23c0,7.5-1.53,12-4.62,14.83S308.36,78,304.27,78c-3.92,0-8.18-.92-10.82-2.67l1.48-4.53a18.23,18.23,0,0,0,9.54,2.6c6,0,10.44-3.15,10.44-11.36V58.38h-.14c-1.77,3-5.3,5.46-10.3,5.46-8.07,0-13.81-6.87-13.81-15.85,0-11,7.15-17.18,14.63-17.18,5.62,0,8.66,2.89,10.11,5.59h.13l.25-4.85Zm-6.14,12.74a9.08,9.08,0,0,0-.32-2.63,8.51,8.51,0,0,0-8.28-6.27c-5.62,0-9.65,4.75-9.65,12.28,0,6.34,3.27,11.67,9.59,11.67a8.63,8.63,0,0,0,8.2-6.07,10.61,10.61,0,0,0,.46-3.14Z"/><path class="cls-2" d="M348.45,64l-.52-4.09h-.17a12.07,12.07,0,0,1-9.92,4.83c-6.54,0-9.89-4.65-9.89-9.3,0-7.85,6.95-12.16,19.47-12.07v-.69c0-2.63-.74-7.51-7.38-7.48a15.74,15.74,0,0,0-8.44,2.42l-1.34-3.92A20.42,20.42,0,0,1,341,30.81c9.9,0,12.32,6.77,12.32,13.26V56.2a49.87,49.87,0,0,0,.49,7.75Zm-.91-16.55c-6.38-.13-13.68,1-13.68,7.28,0,3.87,2.54,5.64,5.5,5.64a8.12,8.12,0,0,0,7.9-5.42,6.32,6.32,0,0,0,.28-1.86Z"/><path class="cls-2" d="M362.81,16.38h5.86V64h-5.86Z"/></svg>