<svg id="Layer_1" data-name="Layer 1" xmlns="http://www.w3.org/2000/svg" viewBox="0 0 375 80"><defs><style>.cls-1{fill:#1a1a1a;}.cls-2{fill:#803790;}</style></defs><title>FlooentEdu_1</title><path class="cls-1" d="M27.38,15.75h27v3.82H31.59v16H52.78v3.82H31.59V60.81H27.38Z"/><path class="cls-1" d="M62.33,15.33h3.82V60.81H62.33Z"/><path class="cls-1" d="M75.31,46.11a16.31,16.31,0,0,1,1.15-6.21A14.81,14.81,0,0,1,79.64,35a14.1,14.1,0,0,1,4.9-3.21,16.53,16.53,0,0,1,6.24-1.15A16.25,16.25,0,0,1,97,31.79a14.48,14.48,0,0,1,4.9,3.21,14.76,14.76,0,0,1,3.22,4.9,17.46,17.46,0,0,1,0,12.41,14.55,14.55,0,0,1-3.22,4.9A14.36,14.36,0,0,1,97,60.43a16.45,16.45,0,0,1-6.2,1.15,16.73,16.73,0,0,1-6.24-1.15,14,14,0,0,1-4.9-3.22,14.61,14.61,0,0,1-3.18-4.9A16.22,16.22,0,0,1,75.31,46.11Zm3.82,0a13.69,13.69,0,0,0,.79,4.68,11,11,0,0,0,2.33,3.82,11.17,11.17,0,0,0,3.69,2.57,12.66,12.66,0,0,0,9.67,0,10.82,10.82,0,0,0,6-6.39,14.26,14.26,0,0,0,0-9.36,10.82,10.82,0,0,0-6-6.39,12.66,12.66,0,0,0-9.67,0,11.17,11.17,0,0,0-3.69,2.57,10.94,10.94,0,0,0-2.33,3.82A13.65,13.65,0,0,0,79.13,46.11Z"/><path class="cls-1" d="M113.12,46.11a16.5,16.5,0,0,1,1.14-6.21,15.13,15.13,0,0,1,3.18-4.9,14.1,14.1,0,0,1,4.9-3.21,16.53,16.53,0,0,1,6.24-1.15,16.31,16.31,0,0,1,6.21,1.15,14.36,14.36,0,0,1,8.11,8.11,17.32,17.32,0,0,1,0,12.41,14.41,14.41,0,0,1-8.11,8.12,16.5,16.5,0,0,1-6.21,1.15,16.73,16.73,0,0,1-6.24-1.15,14,14,0,0,1-4.9-3.22,14.92,14.92,0,0,1-3.18-4.9A16.41,16.41,0,0,1,113.12,46.11Zm3.81,0a13.7,13.7,0,0,0,.8,4.68,10.82,10.82,0,0,0,6,6.39,12.66,12.66,0,0,0,9.67,0,11.17,11.17,0,0,0,3.69-2.57,11,11,0,0,0,2.32-3.82,14.09,14.09,0,0,0,0-9.36,10.92,10.92,0,0,0-2.32-3.82A11.17,11.17,0,0,0,133.42,35a12.66,12.66,0,0,0-9.67,0,11.11,11.11,0,0,0-3.7,2.57,10.92,10.92,0,0,0-2.32,3.82A13.65,13.65,0,0,0,116.93,46.11Z"/><path class="cls-1" d="M178.54,55.27a12.82,12.82,0,0,1-5.5,4.84,17.45,17.45,0,0,1-7.22,1.47,15.73,15.73,0,0,1-6.11-1.15A13.49,13.49,0,0,1,155,57.21a14,14,0,0,1-3-4.9A17.85,17.85,0,0,1,150.92,46a16.78,16.78,0,0,1,1.08-6.1,14.64,14.64,0,0,1,3.06-4.87,14.28,14.28,0,0,1,4.65-3.25,14.57,14.57,0,0,1,5.91-1.18,14.31,14.31,0,0,1,6,1.18,13,13,0,0,1,7,7.54,14.67,14.67,0,0,1,.9,5v2.67h-24.7a13,13,0,0,0,.48,3.09,11,11,0,0,0,5.15,6.71,10.55,10.55,0,0,0,5.51,1.28,12.31,12.31,0,0,0,5.66-1.4,10.2,10.2,0,0,0,4.2-3.82Zm-2.92-11.64a8.65,8.65,0,0,0-.8-3.69,9.87,9.87,0,0,0-2.16-3,10.27,10.27,0,0,0-3.25-2.07,10.64,10.64,0,0,0-4-.76,9.79,9.79,0,0,0-5.18,1.27A11.34,11.34,0,0,0,157,38.28a11.63,11.63,0,0,0-1.72,3.21,8.47,8.47,0,0,0-.51,2.14Z"/><path class="cls-1" d="M188,39.68c0-.55,0-1.22-.06-2s-.07-1.58-.09-2.39-.06-1.56-.1-2.26-.06-1.24-.06-1.62h3.81c0,1.1.08,2.16.1,3.18a9.37,9.37,0,0,0,.16,2h.19a10.33,10.33,0,0,1,3.82-4.17A11.18,11.18,0,0,1,202,30.64a12.55,12.55,0,0,1,5.6,1.08,9,9,0,0,1,3.4,2.84,10.64,10.64,0,0,1,1.72,4,23,23,0,0,1,.48,4.71v17.5h-3.82V43.5A18.9,18.9,0,0,0,209,40a9.15,9.15,0,0,0-1.11-3,5.79,5.79,0,0,0-2.23-2.13,7.65,7.65,0,0,0-3.72-.8,11,11,0,0,0-4,.73A8.64,8.64,0,0,0,194.74,37a10.87,10.87,0,0,0-2.16,3.75,16.05,16.05,0,0,0-.8,5.32v14.7H188Z"/><path class="cls-1" d="M237.74,34.84h-8.4V54a4.11,4.11,0,0,0,1.08,3.06,4,4,0,0,0,3,1.08,8.79,8.79,0,0,0,2.19-.29,13.47,13.47,0,0,0,2.14-.73l.31,3.44a25.7,25.7,0,0,1-2.48.7,11.47,11.47,0,0,1-2.48.32,9.21,9.21,0,0,1-3.5-.61,6.2,6.2,0,0,1-2.36-1.62,6.38,6.38,0,0,1-1.3-2.39,10,10,0,0,1-.41-3V34.84h-6.37V31.41h6.37V22.94h3.82v8.47h8.4Z"/><path class="cls-2" d="M271.82,41.37H254.31V57.68H273.9v4.86H248.45V17.38h24.41v4.86H254.31v14.3h17.51Z"/><path class="cls-2" d="M308.91,15V54.18c0,2.89.12,6.13.27,8.36h-5.24l-.29-5.6h-.16c-1.8,3.62-5.7,6.34-11,6.34-7.86,0-13.91-6.64-13.91-16.46,0-10.84,6.67-17.42,14.56-17.42,5,0,8.32,2.33,9.77,4.92h.14V15Zm-5.85,28.35a12.1,12.1,0,0,0-.25-2.52A8.73,8.73,0,0,0,294.28,34c-6.11,0-9.75,5.36-9.75,12.48,0,6.58,3.27,12,9.63,12a8.9,8.9,0,0,0,8.61-7.07,9.66,9.66,0,0,0,.29-2.53Z"/><path class="cls-2" d="M345.81,53.67c0,3.4.11,6.31.26,8.87h-5.2l-.32-5.3h-.16a12.11,12.11,0,0,1-10.73,6c-5.07,0-11.16-2.84-11.16-14.2V30.14h5.87V48c0,6.17,1.92,10.38,7.24,10.38a8.59,8.59,0,0,0,7.8-5.41,9.2,9.2,0,0,0,.53-3V30.14h5.87Z"/></svg>