<svg id="Layer_1" data-name="Layer 1" xmlns="http://www.w3.org/2000/svg" viewBox="0 0 500 500"><defs><style>.cls-1{fill:#0070ba;stroke:#0070ba;stroke-miterlimit:10;stroke-width:0.25px;fill-rule:evenodd;}</style></defs><title>FlooentLegal - Icon</title><path class="cls-1" d="M50,62.77c29.16,11.82,67.65,23.61,80.88,55.36,7.16,17.2,6.57,36.33,5.73,54.56-1,21.24-1,42.73,2.61,63.75,4.2,24.22,13.85,48.39,33.53,64.13-2.13-10-8.36-19.33-11.25-29.31a118.12,118.12,0,0,1-4.69-31.75c-.18-18.12,4.09-35.65,8.77-53,3.84-14.27,8.45-29.26,6.78-44.22-1.93-17.36-13.33-30.64-27-40.68-12.34-9.1-26.29-16-40.32-22.06Q90.19,73.08,74.76,68.09C67.09,65.61,58.22,61.43,50,62.77m141.16,155c15.53,8.9,31.78,18.27,49.59,21.56,16.32,3,33.63.58,49.63-3.16,14-3.27,27.6-9.31,40.51-15.56s27.63-13.22,37.51-23.91c-5.55.07-10.32,2-15.52,3.63-9.24,3-18.9,3.89-28.57,4.24-23,.84-45.86-1.89-68.83-2.6C233.9,201.34,207.77,201.82,191.16,217.81ZM128.39,83.19c16.93,5.87,42.23.72,52.1,19.2,11.34,21.23-1,50.63,20.1,67.31-8.78-25.42,11.13-61.28-11.24-81.68C173,73.12,147.73,81.51,128.39,83.19Zm58.48,119.16c13.52-1.42,26.33-6.2,39.86-7.71,27.68-3.1,55.67-.93,83.41-3.44,26.49-2.41,51.7-9.66,74.32-23.91,24.62-15.51,50.15-37,65.54-61.94-10.26,7.05-19.44,15.09-30.52,20.92a154.83,154.83,0,0,1-31.2,12.06c-22.45,6.17-45.74,8.36-68.79,11C270.43,155,222.27,165.08,186.87,202.35Zm53.78,235.14c9.36-32.05,3.73-64.26,5.36-96.9,9.11,7.61,12.59,18.31,17.74,28.53.83-32.16-7.55-66.25-22.7-94.58-7.5-14-17.28-27-30.81-35.7-8-5.11-14.81-4.72-22.74-10.08-5.61,17.29-5.55,36.45-1.25,54,4.54,18.56,16.12,32.63,24.94,49.17a239.3,239.3,0,0,1,21.4,56.34,223,223,0,0,1,5.23,31C238.4,425.39,238.33,431.76,240.65,437.49Z"/></svg>