<svg id="Layer_1" data-name="Layer 1" xmlns="http://www.w3.org/2000/svg" viewBox="0 0 375 80"><defs><style>.cls-1{fill:#1a1a1a;}.cls-2{fill:#ca3433;}</style></defs><title>FlooentMD - Text</title><path class="cls-1" d="M30.82,15.79h27v3.82H35v16H56.22v3.82H35V60.85H30.82Z"/><path class="cls-1" d="M65.77,15.37h3.82V60.85H65.77Z"/><path class="cls-1" d="M78.75,46.15a16.31,16.31,0,0,1,1.15-6.21A14.71,14.71,0,0,1,83.08,35,14.1,14.1,0,0,1,88,31.83a16.53,16.53,0,0,1,6.24-1.15,16.25,16.25,0,0,1,6.2,1.15,14.48,14.48,0,0,1,4.9,3.21,14.65,14.65,0,0,1,3.22,4.9,17.46,17.46,0,0,1,0,12.41,14.47,14.47,0,0,1-8.12,8.12,16.44,16.44,0,0,1-6.2,1.14A16.73,16.73,0,0,1,88,60.47a14.12,14.12,0,0,1-4.9-3.22,14.61,14.61,0,0,1-3.18-4.9A16.22,16.22,0,0,1,78.75,46.15Zm3.82,0a13.7,13.7,0,0,0,.8,4.68,10.88,10.88,0,0,0,2.32,3.81,11.05,11.05,0,0,0,3.69,2.58,12.66,12.66,0,0,0,9.67,0,11,11,0,0,0,3.7-2.58,10.88,10.88,0,0,0,2.32-3.81,14.09,14.09,0,0,0,0-9.36,10.92,10.92,0,0,0-2.32-3.82,11.29,11.29,0,0,0-3.7-2.58,12.78,12.78,0,0,0-9.67,0,11.35,11.35,0,0,0-3.69,2.58,10.92,10.92,0,0,0-2.32,3.82A13.61,13.61,0,0,0,82.57,46.15Z"/><path class="cls-1" d="M116.56,46.15a16.5,16.5,0,0,1,1.14-6.21,15,15,0,0,1,3.18-4.9,14.19,14.19,0,0,1,4.9-3.21A16.53,16.53,0,0,1,132,30.68a16.31,16.31,0,0,1,6.21,1.15,14.36,14.36,0,0,1,8.11,8.11,17.32,17.32,0,0,1,0,12.41,14.41,14.41,0,0,1-8.11,8.12A16.5,16.5,0,0,1,132,61.61a16.73,16.73,0,0,1-6.24-1.14,14.22,14.22,0,0,1-4.9-3.22,14.92,14.92,0,0,1-3.18-4.9A16.41,16.41,0,0,1,116.56,46.15Zm3.82,0a13.69,13.69,0,0,0,.79,4.68,10.89,10.89,0,0,0,6,6.39,12.66,12.66,0,0,0,9.67,0,11.05,11.05,0,0,0,3.69-2.58,10.88,10.88,0,0,0,2.32-3.81,14.09,14.09,0,0,0,0-9.36,10.92,10.92,0,0,0-2.32-3.82,11.35,11.35,0,0,0-3.69-2.58,12.78,12.78,0,0,0-9.67,0,11.29,11.29,0,0,0-3.7,2.58,11.07,11.07,0,0,0-2.32,3.82A13.61,13.61,0,0,0,120.38,46.15Z"/><path class="cls-1" d="M182,55.31a12.85,12.85,0,0,1-5.51,4.84,17.45,17.45,0,0,1-7.22,1.46,15.73,15.73,0,0,1-6.11-1.14,13.62,13.62,0,0,1-4.71-3.22,14,14,0,0,1-3-4.9,17.85,17.85,0,0,1-1-6.27A16.67,16.67,0,0,1,155.45,40a14.35,14.35,0,0,1,7.7-8.11,14.59,14.59,0,0,1,5.92-1.18,14.29,14.29,0,0,1,6,1.18A13,13,0,0,1,179.34,35,13.26,13.26,0,0,1,182,39.4a14.9,14.9,0,0,1,.89,5V47.1h-24.7a13,13,0,0,0,.48,3.09,11,11,0,0,0,5.15,6.71,10.65,10.65,0,0,0,5.51,1.28,12.31,12.31,0,0,0,5.66-1.4A10.29,10.29,0,0,0,179.19,53Zm-2.93-11.64a8.73,8.73,0,0,0-.8-3.7,10,10,0,0,0-2.16-3,10.27,10.27,0,0,0-3.25-2.07,10.44,10.44,0,0,0-4-.76,9.72,9.72,0,0,0-5.18,1.27,11.34,11.34,0,0,0-3.28,2.93,11.49,11.49,0,0,0-1.72,3.21,8.47,8.47,0,0,0-.51,2.14Z"/><path class="cls-1" d="M191.41,39.72c0-.55,0-1.22-.07-2s-.07-1.58-.09-2.38-.06-1.56-.1-2.26-.06-1.24-.06-1.62h3.82q.06,1.65.09,3.18a9.45,9.45,0,0,0,.16,2h.19a10.33,10.33,0,0,1,3.82-4.17,11.18,11.18,0,0,1,6.24-1.75,12.55,12.55,0,0,1,5.6,1.08,9,9,0,0,1,3.4,2.84,10.57,10.57,0,0,1,1.72,4,23,23,0,0,1,.48,4.71v17.5h-3.82V43.54a18.82,18.82,0,0,0-.32-3.47,9.15,9.15,0,0,0-1.11-3,5.89,5.89,0,0,0-2.23-2.14,7.63,7.63,0,0,0-3.72-.79,10.82,10.82,0,0,0-4,.73,8.64,8.64,0,0,0-3.25,2.23A10.87,10.87,0,0,0,196,40.83a16.05,16.05,0,0,0-.8,5.32v14.7h-3.81Z"/><path class="cls-1" d="M241.18,34.88h-8.4V54a4.15,4.15,0,0,0,1.08,3.06,4,4,0,0,0,3,1.08,8.93,8.93,0,0,0,2.2-.29,13.7,13.7,0,0,0,2.13-.73l.32,3.44c-.73.25-1.56.48-2.49.7a11.4,11.4,0,0,1-2.48.31A9.22,9.22,0,0,1,233,61a6.08,6.08,0,0,1-2.35-1.62A6.4,6.4,0,0,1,229.37,57a10,10,0,0,1-.41-3V34.88h-6.37V31.45H229V23h3.82v8.47h8.4Z"/><path class="cls-2" d="M292,42.75c-.35-6.27-.76-13.9-.72-19.48h-.18c-1.56,5.24-3.43,10.94-5.69,17.12l-8,21.91H273l-7.35-21.51c-2.15-6.38-3.91-12.17-5.17-17.52h-.16c-.16,5.63-.45,13.15-.89,19.93l-1.2,19.38h-5.54l3.14-45.16h7.46L271,39.28c1.85,5.53,3.37,10.5,4.54,15.21h.18c1.19-4.57,2.76-9.55,4.78-15.21l8.05-21.86H296l2.8,45.16h-5.73Z"/><path class="cls-2" d="M307.75,18a78.48,78.48,0,0,1,12.41-1c8.36,0,14.34,2,18.29,5.67s6.4,8.89,6.4,16.16-2.31,13.4-6.5,17.57S327.1,63,318.36,63a94,94,0,0,1-10.61-.51Zm5.86,40a41.58,41.58,0,0,0,5.86.27c12.5,0,19.23-6.93,19.23-19.14.07-10.66-6-17.4-18.26-17.4a34.32,34.32,0,0,0-6.83.6Z"/></svg>